<mxfile host="Electron" modified="2023-11-23T12:36:30.008Z" agent="Mozilla/5.0 (X11; Linux x86_64) AppleWebKit/537.36 (KHTML, like Gecko) draw.io/22.1.2 Chrome/114.0.5735.289 Electron/25.9.4 Safari/537.36" etag="4sjbglrCLjwYonkzUPVp" version="22.1.2" type="device">
  <diagram name="Page-1" id="aWQylc3qGSz9cxEO3iNP">
    <mxGraphModel dx="684" dy="480" grid="1" gridSize="10" guides="1" tooltips="1" connect="1" arrows="1" fold="1" page="1" pageScale="1" pageWidth="850" pageHeight="1100" math="0" shadow="0">
      <root>
        <mxCell id="0" />
        <mxCell id="1" parent="0" />
        <mxCell id="wnvGMRoNqhbBzvoCQmFp-32" value="" style="endArrow=none;dashed=1;html=1;dashPattern=1 3;strokeWidth=2;rounded=0;" edge="1" parent="1">
          <mxGeometry width="50" height="50" relative="1" as="geometry">
            <mxPoint x="130" y="479.76" as="sourcePoint" />
            <mxPoint x="520" y="479.76" as="targetPoint" />
          </mxGeometry>
        </mxCell>
        <mxCell id="wnvGMRoNqhbBzvoCQmFp-31" value="" style="endArrow=none;dashed=1;html=1;dashPattern=1 3;strokeWidth=2;rounded=0;" edge="1" parent="1">
          <mxGeometry width="50" height="50" relative="1" as="geometry">
            <mxPoint x="130" y="440" as="sourcePoint" />
            <mxPoint x="520" y="440" as="targetPoint" />
          </mxGeometry>
        </mxCell>
        <mxCell id="wnvGMRoNqhbBzvoCQmFp-30" value="" style="endArrow=none;dashed=1;html=1;dashPattern=1 3;strokeWidth=2;rounded=0;" edge="1" parent="1">
          <mxGeometry width="50" height="50" relative="1" as="geometry">
            <mxPoint x="130" y="400" as="sourcePoint" />
            <mxPoint x="520" y="400" as="targetPoint" />
          </mxGeometry>
        </mxCell>
        <mxCell id="wnvGMRoNqhbBzvoCQmFp-29" value="" style="endArrow=none;dashed=1;html=1;dashPattern=1 3;strokeWidth=2;rounded=0;" edge="1" parent="1">
          <mxGeometry width="50" height="50" relative="1" as="geometry">
            <mxPoint x="130" y="359.76" as="sourcePoint" />
            <mxPoint x="520" y="359.76" as="targetPoint" />
          </mxGeometry>
        </mxCell>
        <mxCell id="wnvGMRoNqhbBzvoCQmFp-28" value="" style="endArrow=none;dashed=1;html=1;dashPattern=1 3;strokeWidth=2;rounded=0;" edge="1" parent="1">
          <mxGeometry width="50" height="50" relative="1" as="geometry">
            <mxPoint x="130" y="239.76" as="sourcePoint" />
            <mxPoint x="520" y="239.76" as="targetPoint" />
          </mxGeometry>
        </mxCell>
        <mxCell id="wnvGMRoNqhbBzvoCQmFp-26" value="" style="endArrow=none;dashed=1;html=1;dashPattern=1 3;strokeWidth=2;rounded=0;" edge="1" parent="1">
          <mxGeometry width="50" height="50" relative="1" as="geometry">
            <mxPoint x="130" y="319.76" as="sourcePoint" />
            <mxPoint x="520" y="319.76" as="targetPoint" />
          </mxGeometry>
        </mxCell>
        <mxCell id="wnvGMRoNqhbBzvoCQmFp-27" value="" style="endArrow=none;dashed=1;html=1;dashPattern=1 3;strokeWidth=2;rounded=0;" edge="1" parent="1">
          <mxGeometry width="50" height="50" relative="1" as="geometry">
            <mxPoint x="130" y="280" as="sourcePoint" />
            <mxPoint x="520" y="280" as="targetPoint" />
          </mxGeometry>
        </mxCell>
        <mxCell id="wnvGMRoNqhbBzvoCQmFp-25" value="" style="endArrow=none;dashed=1;html=1;dashPattern=1 3;strokeWidth=2;rounded=0;" edge="1" parent="1">
          <mxGeometry width="50" height="50" relative="1" as="geometry">
            <mxPoint x="130" y="200" as="sourcePoint" />
            <mxPoint x="520" y="200" as="targetPoint" />
          </mxGeometry>
        </mxCell>
        <mxCell id="wnvGMRoNqhbBzvoCQmFp-1" value="" style="endArrow=classic;html=1;rounded=0;" edge="1" parent="1">
          <mxGeometry width="50" height="50" relative="1" as="geometry">
            <mxPoint x="120" y="160" as="sourcePoint" />
            <mxPoint x="120" y="520" as="targetPoint" />
          </mxGeometry>
        </mxCell>
        <mxCell id="wnvGMRoNqhbBzvoCQmFp-2" value="Instruction" style="rounded=1;whiteSpace=wrap;html=1;fillColor=#dae8fc;strokeColor=#6c8ebf;" vertex="1" parent="1">
          <mxGeometry x="150" y="190" width="90" height="20" as="geometry" />
        </mxCell>
        <mxCell id="wnvGMRoNqhbBzvoCQmFp-4" value="Instruction" style="rounded=1;whiteSpace=wrap;html=1;fillColor=#dae8fc;strokeColor=#6c8ebf;" vertex="1" parent="1">
          <mxGeometry x="150" y="230" width="90" height="20" as="geometry" />
        </mxCell>
        <mxCell id="wnvGMRoNqhbBzvoCQmFp-5" value="Memory access" style="rounded=1;whiteSpace=wrap;html=1;fillColor=#dae8fc;strokeColor=#6c8ebf;" vertex="1" parent="1">
          <mxGeometry x="280" y="230" width="90" height="20" as="geometry" />
        </mxCell>
        <mxCell id="wnvGMRoNqhbBzvoCQmFp-6" value="Instruction" style="rounded=1;whiteSpace=wrap;html=1;fillColor=#dae8fc;strokeColor=#6c8ebf;" vertex="1" parent="1">
          <mxGeometry x="150" y="310" width="90" height="20" as="geometry" />
        </mxCell>
        <mxCell id="wnvGMRoNqhbBzvoCQmFp-7" value="DMA burst" style="rounded=1;whiteSpace=wrap;html=1;fillColor=#dae8fc;strokeColor=#6c8ebf;" vertex="1" parent="1">
          <mxGeometry x="280" y="310" width="90" height="20" as="geometry" />
        </mxCell>
        <mxCell id="wnvGMRoNqhbBzvoCQmFp-8" value="Memory access" style="rounded=1;whiteSpace=wrap;html=1;fillColor=#dae8fc;strokeColor=#6c8ebf;" vertex="1" parent="1">
          <mxGeometry x="400" y="310" width="90" height="20" as="geometry" />
        </mxCell>
        <mxCell id="wnvGMRoNqhbBzvoCQmFp-10" value="Instruction" style="rounded=1;whiteSpace=wrap;html=1;fillColor=#dae8fc;strokeColor=#6c8ebf;" vertex="1" parent="1">
          <mxGeometry x="150" y="350" width="90" height="20" as="geometry" />
        </mxCell>
        <mxCell id="wnvGMRoNqhbBzvoCQmFp-11" value="Memory access" style="rounded=1;whiteSpace=wrap;html=1;fillColor=#dae8fc;strokeColor=#6c8ebf;" vertex="1" parent="1">
          <mxGeometry x="400" y="350" width="90" height="20" as="geometry" />
        </mxCell>
        <mxCell id="wnvGMRoNqhbBzvoCQmFp-12" value="Instruction" style="rounded=1;whiteSpace=wrap;html=1;fillColor=#dae8fc;strokeColor=#6c8ebf;" vertex="1" parent="1">
          <mxGeometry x="150" y="470" width="90" height="20" as="geometry" />
        </mxCell>
        <mxCell id="wnvGMRoNqhbBzvoCQmFp-14" value="" style="endArrow=none;html=1;rounded=0;" edge="1" parent="1">
          <mxGeometry width="50" height="50" relative="1" as="geometry">
            <mxPoint x="110" y="200" as="sourcePoint" />
            <mxPoint x="130" y="199.5" as="targetPoint" />
          </mxGeometry>
        </mxCell>
        <mxCell id="wnvGMRoNqhbBzvoCQmFp-15" value="" style="endArrow=none;html=1;rounded=0;" edge="1" parent="1">
          <mxGeometry width="50" height="50" relative="1" as="geometry">
            <mxPoint x="110" y="240.25" as="sourcePoint" />
            <mxPoint x="130" y="239.75" as="targetPoint" />
          </mxGeometry>
        </mxCell>
        <mxCell id="wnvGMRoNqhbBzvoCQmFp-16" value="" style="endArrow=none;html=1;rounded=0;" edge="1" parent="1">
          <mxGeometry width="50" height="50" relative="1" as="geometry">
            <mxPoint x="110" y="280.5" as="sourcePoint" />
            <mxPoint x="130" y="280" as="targetPoint" />
          </mxGeometry>
        </mxCell>
        <mxCell id="wnvGMRoNqhbBzvoCQmFp-17" value="" style="endArrow=none;html=1;rounded=0;" edge="1" parent="1">
          <mxGeometry width="50" height="50" relative="1" as="geometry">
            <mxPoint x="110" y="320.25" as="sourcePoint" />
            <mxPoint x="130" y="319.75" as="targetPoint" />
          </mxGeometry>
        </mxCell>
        <mxCell id="wnvGMRoNqhbBzvoCQmFp-19" value="" style="endArrow=none;html=1;rounded=0;" edge="1" parent="1">
          <mxGeometry width="50" height="50" relative="1" as="geometry">
            <mxPoint x="110" y="360.25" as="sourcePoint" />
            <mxPoint x="130" y="359.75" as="targetPoint" />
          </mxGeometry>
        </mxCell>
        <mxCell id="wnvGMRoNqhbBzvoCQmFp-20" value="" style="endArrow=none;html=1;rounded=0;" edge="1" parent="1">
          <mxGeometry width="50" height="50" relative="1" as="geometry">
            <mxPoint x="110" y="400.5" as="sourcePoint" />
            <mxPoint x="130" y="400" as="targetPoint" />
          </mxGeometry>
        </mxCell>
        <mxCell id="wnvGMRoNqhbBzvoCQmFp-21" value="" style="endArrow=none;html=1;rounded=0;" edge="1" parent="1">
          <mxGeometry width="50" height="50" relative="1" as="geometry">
            <mxPoint x="110" y="440.5" as="sourcePoint" />
            <mxPoint x="130" y="440" as="targetPoint" />
          </mxGeometry>
        </mxCell>
        <mxCell id="wnvGMRoNqhbBzvoCQmFp-22" value="" style="endArrow=none;html=1;rounded=0;" edge="1" parent="1">
          <mxGeometry width="50" height="50" relative="1" as="geometry">
            <mxPoint x="110" y="480.25" as="sourcePoint" />
            <mxPoint x="130" y="479.75" as="targetPoint" />
          </mxGeometry>
        </mxCell>
        <mxCell id="wnvGMRoNqhbBzvoCQmFp-33" value="Time" style="text;html=1;strokeColor=none;fillColor=none;align=center;verticalAlign=middle;whiteSpace=wrap;rounded=0;" vertex="1" parent="1">
          <mxGeometry x="50" y="500" width="60" height="30" as="geometry" />
        </mxCell>
      </root>
    </mxGraphModel>
  </diagram>
</mxfile>
